<svg width="46" height="51" viewBox="0 0 46 51" fill="none" xmlns="http://www.w3.org/2000/svg">
<path fill-rule="evenodd" clip-rule="evenodd" d="M1.67252 41.9726C0.924804 43.5667 0.506274 45.2953 0.441965 47.0549C0.395369 48.3298 0.535425 49.6021 0.855506 50.8317H4.12162C3.67063 49.5432 3.48958 48.1756 3.58973 46.8141C3.68988 45.4526 4.06908 44.1263 4.70376 42.9176C5.33843 41.709 6.215 40.6438 7.27894 39.7884C7.44056 39.6572 7.57448 39.4952 7.67294 39.3117C7.7714 39.1283 7.83242 38.9271 7.85247 38.7199C8.2225 34.9678 9.97481 31.4873 12.7686 28.9555C15.5624 26.4236 19.198 25.0214 22.9684 25.0214C26.7388 25.0214 30.3744 26.4236 33.1682 28.9555C35.962 31.4873 37.7143 34.9678 38.0843 38.7199C38.1051 38.9276 38.1667 39.1291 38.2655 39.313C38.3644 39.4968 38.4986 39.6592 38.6605 39.791C39.8133 40.7224 40.7426 41.9004 41.3803 43.2382C42.018 44.5761 42.3477 46.0398 42.3452 47.5218C42.3446 48.6555 42.1504 49.7743 41.7768 50.8317H45.0627C45.3435 49.7568 45.4878 48.6448 45.4878 47.5218C45.4919 45.6814 45.1065 43.8608 44.3568 42.1799C43.6071 40.4991 42.5101 38.9959 41.1379 37.7693C40.8745 35.7879 40.2889 33.863 39.4042 32.0707C41.8847 27.1606 43.6956 21.9402 44.7886 16.5488C45.5768 12.4582 46.0954 6.88271 44.0841 3.55416C43.623 2.73439 42.9481 2.05514 42.1313 1.58885C41.3145 1.12256 40.3865 0.886735 39.4461 0.906517C32.9409 0.906517 28.9289 12.1466 26.6322 22.2317C24.2133 21.7335 21.7183 21.7335 19.2994 22.2317C17.0027 12.1466 12.9906 0.906517 6.48544 0.906517C5.5459 0.88596 4.61838 1.12061 3.80165 1.58547C2.98492 2.05033 2.30955 2.72799 1.84748 3.54631C-0.166411 6.87485 0.357356 12.4504 1.14301 16.541C2.23533 21.935 4.04626 27.1582 6.52734 32.0707C5.64183 33.8655 5.05619 35.7931 4.79367 37.7771C3.48179 38.9516 2.42024 40.3785 1.67252 41.9726ZM35.3267 26.6523C33.6697 25.1386 31.7488 23.942 29.6595 23.1221C32.2915 11.4866 36.0862 4.04912 39.4461 4.04912C39.8449 4.03251 40.2402 4.13016 40.5854 4.33058C40.9305 4.53101 41.2113 4.82587 41.3946 5.18046C43.6546 8.90445 41.7874 19.5526 37.4349 28.9359C36.7971 28.1172 36.0919 27.3534 35.3267 26.6523ZM10.5918 26.6445C9.83109 27.346 9.1303 28.1099 8.49671 28.9281C4.1442 19.5526 2.27696 8.90445 4.53702 5.18046C4.72028 4.82587 5.00103 4.53101 5.3462 4.33058C5.69138 4.13016 6.08664 4.03251 6.48544 4.04912C9.84541 4.04912 13.6401 11.4866 16.2589 23.1143C14.1697 23.9342 12.2488 25.1307 10.5918 26.6445Z" fill="#9547A5"/>
<path fill-rule="evenodd" clip-rule="evenodd" d="M42.3452 47.5218C42.3477 46.0398 42.018 44.5761 41.3803 43.2382C40.7426 41.9004 39.8133 40.7224 38.6605 39.791C38.4986 39.6592 38.3644 39.4968 38.2655 39.313C38.1667 39.1291 38.1051 38.9276 38.0843 38.7199C37.7143 34.9678 35.962 31.4873 33.1682 28.9555C30.3744 26.4236 26.7388 25.0214 22.9684 25.0214C19.198 25.0214 15.5624 26.4236 12.7686 28.9555C9.97481 31.4873 8.2225 34.9678 7.85247 38.7199C7.83242 38.9271 7.7714 39.1283 7.67294 39.3117C7.57448 39.4952 7.44056 39.6572 7.27894 39.7884C6.215 40.6438 5.33843 41.709 4.70376 42.9176C4.06908 44.1263 3.68988 45.4526 3.58973 46.8141C3.48958 48.1756 3.67063 49.5432 4.12162 50.8317H41.7768C42.1504 49.7743 42.3446 48.6555 42.3452 47.5218ZM17.8105 42.6916C18.0983 42.2609 18.2519 41.7546 18.2519 41.2366C18.2519 40.5421 17.976 39.876 17.4848 39.3848C16.9937 38.8937 16.3276 38.6178 15.633 38.6178C15.1151 38.6178 14.6088 38.7714 14.1781 39.0591C13.7474 39.3469 13.4118 39.7559 13.2135 40.2344C13.0153 40.713 12.9635 41.2395 13.0645 41.7475C13.1656 42.2555 13.415 42.7222 13.7812 43.0884C14.1475 43.4547 14.6141 43.7041 15.1221 43.8051C15.6301 43.9062 16.1567 43.8543 16.6352 43.6561C17.1138 43.4579 17.5228 43.1222 17.8105 42.6916ZM28.8436 39.0591C29.2742 38.7714 29.7806 38.6178 30.2985 38.6178C30.9931 38.6178 31.6592 38.8937 32.1503 39.3848C32.6415 39.876 32.9174 40.5421 32.9174 41.2366C32.9174 41.7546 32.7638 42.2609 32.476 42.6916C32.1883 43.1222 31.7792 43.4579 31.3007 43.6561C30.8222 43.8543 30.2956 43.9062 29.7876 43.8051C29.2796 43.7041 28.813 43.4547 28.4467 43.0884C28.0805 42.7222 27.8311 42.2555 27.73 41.7475C27.629 41.2395 27.6808 40.713 27.879 40.2344C28.0773 39.7559 28.4129 39.3469 28.8436 39.0591Z" fill="#9547A5"/>
<path d="M8.49671 28.9281C9.1303 28.1099 9.83109 27.346 10.5918 26.6445C12.2488 25.1307 14.1697 23.9342 16.2589 23.1143C13.6401 11.4866 9.84541 4.04912 6.48544 4.04912C6.08664 4.03251 5.69138 4.13016 5.3462 4.33058C5.00103 4.53101 4.72028 4.82587 4.53702 5.18046C2.27696 8.90445 4.1442 19.5526 8.49671 28.9281Z" fill="#9547A5"/>
<path d="M29.6595 23.1221C31.7488 23.942 33.6697 25.1386 35.3267 26.6523C36.0919 27.3534 36.7971 28.1172 37.4349 28.9359C41.7874 19.5526 43.6546 8.90445 41.3946 5.18046C41.2113 4.82587 40.9305 4.53101 40.5854 4.33058C40.2402 4.13016 39.8449 4.03251 39.4461 4.04912C36.0862 4.04912 32.2915 11.4866 29.6595 23.1221Z" fill="#9547A5"/>
</svg>
