<svg width="25" height="24" viewBox="0 0 25 24" fill="none" xmlns="http://www.w3.org/2000/svg">
<path d="M9.12006 13.8461C8.08006 13.8461 7.23206 12.9011 7.23206 11.7451C7.23206 10.5891 8.05906 9.64306 9.12106 9.64306C10.1711 9.64306 11.0311 10.5881 11.0101 11.7451C11.0101 12.9011 10.1711 13.8461 9.12006 13.8461ZM16.0941 13.8451C15.0541 13.8451 14.2041 12.9001 14.2041 11.7441C14.2041 10.5881 15.0331 9.64206 16.0941 9.64206C17.1441 9.64206 18.0041 10.5871 17.9841 11.7441C17.9841 12.9001 17.1551 13.8451 16.0941 13.8451ZM10.7251 4.32106L10.4171 3.75806L9.78306 3.86406C8.34637 4.10418 6.94807 4.53463 5.62506 5.14406L5.39706 5.24906L5.25506 5.45906C2.64206 9.31206 1.92506 13.1071 2.28006 16.8341L2.31906 17.2411L2.64906 17.4811C4.18616 18.6091 5.90306 19.4689 7.72706 20.0241L8.51706 20.2661L9.63006 17.5501C11.5401 18.0221 13.6601 18.0221 15.5691 17.5501L16.6761 20.2671L17.4661 20.0251C19.2916 19.4713 21.0095 18.6107 22.5461 17.4801L22.8731 17.2421L22.9131 16.8401C23.3491 12.5201 22.2161 8.75706 19.9551 5.45606L19.8131 5.24806L19.5851 5.14406C18.2625 4.53716 16.8658 4.10681 15.4311 3.86406L14.8131 3.76106L14.4991 4.30306C14.4111 4.45306 14.3221 4.62306 14.2361 4.79606C13.1512 4.68486 12.0579 4.68486 10.9731 4.79606C10.8881 4.62606 10.8031 4.46206 10.7251 4.32106ZM7.31506 16.6101C7.51206 16.7241 7.72006 16.8361 7.92506 16.9381L7.47606 18.0341C6.26156 17.5916 5.10935 16.9939 4.04806 16.2561C3.82306 13.1181 4.46106 9.95106 6.61206 6.68606C7.51994 6.28659 8.46616 5.98067 9.43606 5.77306C9.49606 5.89806 9.55206 6.02106 9.59806 6.12906L9.87106 6.77206L10.5631 6.67106C11.9191 6.47227 13.297 6.47227 14.6531 6.67106L15.3431 6.77106L15.6151 6.12906C15.6621 6.01706 15.7171 5.89506 15.7751 5.77306C16.7521 5.98306 17.6981 6.29306 18.6031 6.68806C20.4781 9.50806 21.4241 12.6541 21.1491 16.2551C20.0872 16.9935 18.9343 17.5914 17.7191 18.0341L17.2741 16.9391C17.4801 16.8371 17.6881 16.7251 17.8871 16.6101C18.3771 16.3281 18.9041 15.9761 19.2401 15.6401L17.9601 14.3601C17.7971 14.5241 17.4371 14.7801 16.9831 15.0421C16.5391 15.2981 16.0981 15.5051 15.8161 15.5981C13.8131 16.2611 11.3881 16.2611 9.38406 15.5981C9.10306 15.5051 8.66206 15.2981 8.21806 15.0421C7.76406 14.7811 7.40406 14.5241 7.24006 14.3601L5.96006 15.6401C6.29706 15.9761 6.82506 16.3281 7.31506 16.6101Z" fill="#358BB9"/>
</svg>
