<svg width="25" height="24" viewBox="0 0 25 24" fill="none" xmlns="http://www.w3.org/2000/svg">
<path fill-rule="evenodd" clip-rule="evenodd" d="M11.334 2.93414C12.4124 1.8558 13.8749 1.25 15.3999 1.25H18.3999C18.8141 1.25 19.1499 1.58579 19.1499 2V6C19.1499 6.41421 18.8141 6.75 18.3999 6.75H15.3999C15.3336 6.75 15.27 6.77634 15.2231 6.82322C15.1762 6.87011 15.1499 6.9337 15.1499 7V9.25H18.3999C18.6309 9.25 18.8489 9.35641 18.9911 9.53844C19.1332 9.72048 19.1835 9.95785 19.1275 10.1819L18.1275 14.1819C18.044 14.5158 17.7441 14.75 17.3999 14.75H15.1499V22C15.1499 22.4142 14.8141 22.75 14.3999 22.75H10.3999C9.98569 22.75 9.6499 22.4142 9.6499 22V14.75H7.3999C6.98569 14.75 6.6499 14.4142 6.6499 14V10C6.6499 9.58579 6.98569 9.25 7.3999 9.25H9.6499V7C9.6499 5.47501 10.2557 4.01247 11.334 2.93414ZM15.3999 2.75C14.2727 2.75 13.1917 3.19777 12.3947 3.9948C11.5977 4.79183 11.1499 5.87283 11.1499 7V10C11.1499 10.4142 10.8141 10.75 10.3999 10.75H8.1499V13.25H10.3999C10.8141 13.25 11.1499 13.5858 11.1499 14V21.25H13.6499V14C13.6499 13.5858 13.9857 13.25 14.3999 13.25H16.8143L17.4393 10.75H14.3999C13.9857 10.75 13.6499 10.4142 13.6499 10V7C13.6499 6.53587 13.8343 6.09075 14.1625 5.76256C14.4907 5.43438 14.9358 5.25 15.3999 5.25H17.6499V2.75H15.3999Z" fill="#358BB9"/>
</svg>
