<svg width="39" height="39" viewBox="0 0 39 39" fill="none" xmlns="http://www.w3.org/2000/svg">
<g filter="url(#filter0_d_5147_184)">
<path d="M12.7013 20.4364C12.5262 20.1885 12.4325 19.8923 12.4333 19.5888C12.434 19.2853 12.5292 18.9895 12.7055 18.7424C12.8884 18.492 13.1417 18.3021 13.4344 18.1979L15.3665 17.569C15.8508 17.4076 16.2909 17.1359 16.6521 16.7752C17.0133 16.4146 17.2857 15.9749 17.4478 15.4909L18.081 13.5338C18.1858 13.2444 18.3787 12.9952 18.6327 12.8213C18.8866 12.6474 19.1887 12.5575 19.4964 12.5644C19.8041 12.5712 20.1019 12.6744 20.3478 12.8594C20.5938 13.0445 20.7755 13.302 20.8673 13.5957L21.4977 15.5303C21.6589 16.0148 21.9307 16.4551 22.2914 16.8165C22.6521 17.1779 23.0919 17.4504 23.5762 17.6126L25.5294 18.2486C25.8171 18.351 26.0658 18.5405 26.2408 18.7908C26.4158 19.0411 26.5084 19.3397 26.5058 19.6451C26.5032 19.9505 26.4054 20.2474 26.2261 20.4947C26.0468 20.7419 25.7949 20.9271 25.5054 21.0246L23.5353 21.6676C23.0641 21.829 22.6357 22.0952 22.2822 22.4461C21.9288 22.7971 21.6596 23.2236 21.4949 23.6936L20.8659 25.6493C20.7632 25.9369 20.5736 26.1854 20.3233 26.3603C20.0729 26.5353 19.7744 26.6279 19.469 26.6254C19.1636 26.623 18.8665 26.5255 18.6191 26.3465C18.3716 26.1676 18.186 25.916 18.0881 25.6268L17.4618 23.6936C17.3002 23.2067 17.0266 22.7645 16.6629 22.4026C16.2992 22.0407 15.8557 21.7692 15.3679 21.6099L13.4105 20.9739C13.1234 20.8726 12.8758 20.6841 12.7013 20.4364Z" fill="#9547A5"/>
</g>
<defs>
<filter id="filter0_d_5147_184" x="0.433228" y="0.563965" width="38.0726" height="38.0615" filterUnits="userSpaceOnUse" color-interpolation-filters="sRGB">
<feFlood flood-opacity="0" result="BackgroundImageFix"/>
<feColorMatrix in="SourceAlpha" type="matrix" values="0 0 0 0 0 0 0 0 0 0 0 0 0 0 0 0 0 0 127 0" result="hardAlpha"/>
<feOffset/>
<feGaussianBlur stdDeviation="6"/>
<feComposite in2="hardAlpha" operator="out"/>
<feColorMatrix type="matrix" values="0 0 0 0 0.532812 0 0 0 0 0.184062 0 0 0 0 0.590937 0 0 0 0.35 0"/>
<feBlend mode="normal" in2="BackgroundImageFix" result="effect1_dropShadow_5147_184"/>
<feBlend mode="normal" in="SourceGraphic" in2="effect1_dropShadow_5147_184" result="shape"/>
</filter>
</defs>
</svg>
