<svg width="39" height="39" viewBox="0 0 39 39" fill="none" xmlns="http://www.w3.org/2000/svg">
<g filter="url(#filter0_d_3364_884)">
<path d="M12.2679 20.3417C12.0928 20.0938 11.9992 19.7976 11.9999 19.494C12.0007 19.1905 12.0958 18.8948 12.2721 18.6477C12.4551 18.3973 12.7084 18.2073 13.0011 18.1032L14.9332 17.4743C15.4174 17.3129 15.8576 17.0411 16.2188 16.6805C16.58 16.3198 16.8524 15.8802 17.0144 15.3962L17.6477 13.4391C17.7524 13.1497 17.9454 12.9005 18.1993 12.7266C18.4532 12.5527 18.7553 12.4628 19.063 12.4697C19.3707 12.4765 19.6685 12.5797 19.9145 12.7647C20.1604 12.9497 20.3421 13.2072 20.4339 13.501L21.0644 15.4356C21.2256 15.92 21.4973 16.3604 21.858 16.7218C22.2188 17.0832 22.6586 17.3557 23.1428 17.5179L25.096 18.1539C25.3838 18.2563 25.6324 18.4458 25.8075 18.6961C25.9825 18.9464 26.0751 19.245 26.0725 19.5504C26.0698 19.8557 25.9721 20.1527 25.7928 20.4C25.6135 20.6472 25.3616 20.8324 25.0721 20.9298L23.102 21.5728C22.6308 21.7342 22.2023 22.0004 21.8489 22.3514C21.4954 22.7023 21.2262 23.1289 21.0615 23.5989L20.4325 25.5546C20.3299 25.8422 20.1402 26.0907 19.8899 26.2656C19.6396 26.4405 19.341 26.5332 19.0356 26.5307C18.7302 26.5282 18.4332 26.4308 18.1857 26.2518C17.9383 26.0728 17.7527 25.8213 17.6547 25.5321L17.0285 23.5989C16.8669 23.112 16.5932 22.6698 16.2296 22.3079C15.8659 21.9459 15.4223 21.6744 14.9346 21.5151L12.9771 20.8792C12.6901 20.7779 12.4424 20.5894 12.2679 20.3417Z" fill="#358BB9"/>
</g>
<defs>
<filter id="filter0_d_3364_884" x="0" y="0.469238" width="38.0725" height="38.0615" filterUnits="userSpaceOnUse" color-interpolation-filters="sRGB">
<feFlood flood-opacity="0" result="BackgroundImageFix"/>
<feColorMatrix in="SourceAlpha" type="matrix" values="0 0 0 0 0 0 0 0 0 0 0 0 0 0 0 0 0 0 127 0" result="hardAlpha"/>
<feOffset/>
<feGaussianBlur stdDeviation="6"/>
<feComposite in2="hardAlpha" operator="out"/>
<feColorMatrix type="matrix" values="0 0 0 0 0.532812 0 0 0 0 0.184062 0 0 0 0 0.590937 0 0 0 0.35 0"/>
<feBlend mode="normal" in2="BackgroundImageFix" result="effect1_dropShadow_3364_884"/>
<feBlend mode="normal" in="SourceGraphic" in2="effect1_dropShadow_3364_884" result="shape"/>
</filter>
</defs>
</svg>
