<svg width="88" height="88" viewBox="0 0 88 88" fill="none" xmlns="http://www.w3.org/2000/svg">
<g filter="url(#filter0_d_3194_448)">
<path d="M42.0845 28.6094C42.6488 28.2113 43.3229 27.9983 44.0136 28C44.7043 28.0017 45.3774 28.2181 45.9396 28.619C46.5096 29.035 46.9418 29.611 47.1788 30.2766L48.61 34.67C48.9773 35.7712 49.5957 36.772 50.4165 37.5933C51.2372 38.4147 52.2378 39.0341 53.3392 39.4026L57.7931 40.8426C58.4516 41.0808 59.0187 41.5196 59.4144 42.0969C59.8102 42.6743 60.0147 43.3613 59.9992 44.061C59.9836 44.7607 59.7488 45.4379 59.3277 45.9971C58.9067 46.5564 58.3206 46.9695 57.6522 47.1783L53.2496 48.6119C52.1471 48.9785 51.145 49.5963 50.3226 50.4166C49.5001 51.2369 48.8798 52.237 48.5108 53.3381L47.0635 57.7795C46.8305 58.4339 46.3991 58.9993 45.8295 59.3973C45.2599 59.7952 44.5804 60.0059 43.8854 59.9999C43.1905 59.9939 42.5147 59.7716 41.952 59.3639C41.3894 58.9562 40.9679 58.3834 40.7461 57.7251L39.2829 53.2453C38.9155 52.1738 38.3098 51.1995 37.5111 50.3958C36.7125 49.5921 35.7418 48.98 34.6721 48.6055L30.2215 47.1751C29.567 46.9417 29.0015 46.5105 28.6034 45.9413C28.2053 45.372 27.9945 44.6931 28.0001 43.9986C28.0057 43.3042 28.2276 42.6287 28.6348 42.066C29.0421 41.5033 29.6145 41.0813 30.2727 40.8586L34.6721 39.4346C35.7802 39.0671 36.7865 38.4449 37.6102 37.6179C38.4338 36.7909 39.0517 35.7823 39.4142 34.6732L40.8614 30.2222C41.0919 29.5694 41.521 29.0062 42.0845 28.6094Z" fill="#9547A5"/>
</g>
<defs>
<filter id="filter0_d_3194_448" x="0" y="0" width="88" height="88" filterUnits="userSpaceOnUse" color-interpolation-filters="sRGB">
<feFlood flood-opacity="0" result="BackgroundImageFix"/>
<feColorMatrix in="SourceAlpha" type="matrix" values="0 0 0 0 0 0 0 0 0 0 0 0 0 0 0 0 0 0 127 0" result="hardAlpha"/>
<feOffset/>
<feGaussianBlur stdDeviation="14"/>
<feComposite in2="hardAlpha" operator="out"/>
<feColorMatrix type="matrix" values="0 0 0 0 0.560784 0 0 0 0 0.231373 0 0 0 0 0.619608 0 0 0 0.5 0"/>
<feBlend mode="normal" in2="BackgroundImageFix" result="effect1_dropShadow_3194_448"/>
<feBlend mode="normal" in="SourceGraphic" in2="effect1_dropShadow_3194_448" result="shape"/>
</filter>
</defs>
</svg>
