<svg width="26" height="26" viewBox="0 0 26 26" fill="none" xmlns="http://www.w3.org/2000/svg">
<path d="M9.64021 0.755198C10.0492 0.371042 10.5675 0.123458 11.1234 0.0467384C11.6794 -0.0299808 12.2454 0.0679605 12.7431 0.326997C13.2487 0.597248 13.6616 1.0118 13.9275 1.52052L15.5759 4.8936C15.9959 5.7381 16.6067 6.4734 17.3599 7.04143C18.1132 7.60947 18.9883 7.99469 19.9161 8.16667L23.6625 8.8216C24.2192 8.93884 24.7251 9.22772 25.1089 9.64754C25.4926 10.0674 25.7348 10.5969 25.8014 11.1617C25.868 11.7264 25.7556 12.2978 25.4801 12.7954C25.2046 13.293 24.7798 13.6917 24.2656 13.9352L20.8854 15.5865C20.0398 16.0062 19.3034 16.6166 18.7344 17.3696C18.1654 18.1225 17.7794 18.9974 17.607 19.925L16.9447 23.6622C16.8312 24.2151 16.5481 24.7188 16.1348 25.1034C15.7216 25.488 15.1986 25.7343 14.6388 25.8081C14.0789 25.8819 13.5101 25.7794 13.0113 25.515C12.5124 25.2506 12.1085 24.8374 11.8557 24.3328L10.1718 20.8939C9.75507 20.0732 9.15749 19.3578 8.42402 18.8015C7.69056 18.2452 6.84033 17.8624 5.93736 17.6821L2.19466 17.0345C1.64168 16.9207 1.13789 16.6377 0.753241 16.2247C0.36859 15.8117 0.122161 15.2893 0.0481667 14.7299C-0.0258275 14.1705 0.0762847 13.602 0.340327 13.1032C0.604368 12.6044 1.01724 12.2001 1.52162 11.9464L4.90034 10.3033C5.75035 9.88228 6.48966 9.26782 7.05882 8.50931C7.62797 7.75079 8.01108 6.8694 8.17732 5.93603L8.83846 2.19111C8.95013 1.63982 9.23166 1.13817 9.64021 0.755198Z" fill="#9547A5"/>
</svg>
