<svg width="14" height="14" viewBox="0 0 14 14" fill="none" xmlns="http://www.w3.org/2000/svg">
<path d="M5.34704 0.885322C5.55238 0.692425 5.81265 0.568104 6.0918 0.529581C6.37096 0.491058 6.65517 0.540238 6.90508 0.670308C7.15896 0.806009 7.3663 1.01417 7.49982 1.26961L8.32752 2.96334C8.53843 3.38739 8.84511 3.75661 9.22334 4.04184C9.60157 4.32707 10.041 4.5205 10.5069 4.60685L12.3881 4.93572C12.6676 4.99458 12.9216 5.13964 13.1143 5.35044C13.307 5.56124 13.4286 5.82716 13.4621 6.11074C13.4955 6.39431 13.4391 6.68124 13.3007 6.93109C13.1624 7.18094 12.9491 7.38113 12.6909 7.50343L10.9936 8.33258C10.569 8.5433 10.1992 8.84982 9.91351 9.22791C9.6278 9.606 9.434 10.0453 9.3474 10.5111L9.01487 12.3877C8.95787 12.6653 8.81572 12.9182 8.6082 13.1113C8.40067 13.3044 8.13809 13.4281 7.85697 13.4652C7.57586 13.5022 7.29021 13.4508 7.03974 13.318C6.78928 13.1852 6.58646 12.9777 6.4595 12.7244L5.61396 10.9976C5.40471 10.5855 5.10465 10.2263 4.73635 9.94694C4.36806 9.66759 3.94113 9.47539 3.48772 9.38482L1.6084 9.05966C1.33073 9.00253 1.07776 8.86041 0.884613 8.65304C0.691467 8.44567 0.567728 8.18333 0.530573 7.90245C0.493418 7.62157 0.544692 7.33608 0.677275 7.08562C0.809859 6.83516 1.01717 6.63215 1.27044 6.50479L2.967 5.6797C3.39382 5.46831 3.76505 5.15977 4.05084 4.7789C4.33663 4.39803 4.529 3.95545 4.61247 3.48678L4.94445 1.60634C5.00053 1.32952 5.14189 1.07762 5.34704 0.885322Z" fill="#9547A5"/>
</svg>
