<svg width="62" height="12" viewBox="0 0 62 12" fill="none" xmlns="http://www.w3.org/2000/svg">
<path d="M60.7126 11.4329C60.8491 11.6729 61.1544 11.7568 61.3944 11.6203C61.6344 11.4837 61.7183 11.1785 61.5818 10.9384L60.7126 11.4329ZM2.56998 0.613549C2.30801 0.526225 2.02485 0.667805 1.93752 0.929777L0.514499 5.19885C0.427175 5.46082 0.568755 5.74398 0.830726 5.83131C1.0927 5.91863 1.37586 5.77705 1.46318 5.51508L2.72809 1.72035L6.52283 2.98526C6.7848 3.07258 7.06796 2.931 7.15528 2.66903C7.24261 2.40706 7.10103 2.1239 6.83905 2.03657L2.56998 0.613549ZM61.5818 10.9384C60.227 8.55655 58.449 6.99786 56.3485 6.06354C54.2576 5.13343 51.8764 4.83484 49.3263 4.91918C44.2488 5.0871 38.3436 6.78611 32.4797 8.23902C26.5719 9.70281 20.6893 10.9232 15.5123 10.2403C10.386 9.5641 5.9369 7.01993 2.85908 0.864284L1.96465 1.3115C5.19793 7.77806 9.94199 10.5142 15.3815 11.2317C20.7704 11.9425 26.8263 10.67 32.7202 9.20967C38.6581 7.73844 44.418 6.08205 49.3593 5.91863C51.8186 5.8373 54.0354 6.12907 55.9421 6.97723C57.8394 7.82118 59.4588 9.22871 60.7126 11.4329L61.5818 10.9384Z" fill="#7D298A"/>
</svg>
