<svg width="37" height="44" viewBox="0 0 37 44" fill="none" xmlns="http://www.w3.org/2000/svg">
<path d="M35.621 43.3892C35.6952 43.6552 35.971 43.8106 36.237 43.7364C36.5029 43.6621 36.6584 43.3864 36.5842 43.1204L35.621 43.3892ZM0.928636 27.4349L0.438081 27.5317L0.928636 27.4349ZM17.5241 0.018173C17.2538 -0.0383983 16.9888 0.134851 16.9323 0.405137L16.0104 4.80969C15.9538 5.07998 16.1271 5.34495 16.3973 5.40152C16.6676 5.45809 16.9326 5.28484 16.9892 5.01456L17.8086 1.0994L21.7238 1.91885C21.9941 1.97542 22.259 1.80217 22.3156 1.53188C22.3722 1.2616 22.1989 0.996629 21.9287 0.940057L17.5241 0.018173ZM36.5842 43.1204C35.5352 39.3617 32.5974 35.7371 28.8936 32.6143C25.1801 29.4834 20.6446 26.813 16.3126 24.9761C11.9954 23.1455 7.81601 22.1155 4.82648 22.3318C3.33203 22.4399 2.05281 22.8658 1.23151 23.7501C0.39137 24.6547 0.123322 25.9354 0.438081 27.5317L1.41919 27.3382C1.14491 25.9472 1.40805 25.0295 1.96424 24.4306C2.53927 23.8115 3.52153 23.4288 4.89864 23.3292C7.65221 23.13 11.6562 24.0879 15.9222 25.8968C20.1732 27.6993 24.6206 30.3197 28.249 33.3789C31.8871 36.4462 34.6503 39.9111 35.621 43.3892L36.5842 43.1204ZM0.438081 27.5317C0.68481 28.7829 1.39426 29.6089 2.43432 29.9797C3.43504 30.3365 4.67523 30.2488 5.98511 29.8608C8.61366 29.0823 11.7665 27.0237 14.477 24.1608C19.8961 18.4372 23.7421 9.26039 17.8401 0.233944L17.0032 0.781193C22.5454 9.25754 19.0078 17.9208 13.7508 23.4733C11.1233 26.2485 8.11495 28.187 5.70111 28.902C4.4898 29.2608 3.48849 29.2939 2.77013 29.0378C2.09112 28.7957 1.60393 28.2751 1.41919 27.3382L0.438081 27.5317Z" fill="#7D298A"/>
</svg>
