<svg width="55" height="53" viewBox="0 0 55 53" fill="none" xmlns="http://www.w3.org/2000/svg">
<path d="M44.3581 0.388876C44.1275 0.236946 43.8174 0.300712 43.6655 0.531302C43.5136 0.761892 43.5773 1.07199 43.8079 1.22392L44.3581 0.388876ZM4.37933 52.1822C4.59036 52.3603 4.90582 52.3336 5.08391 52.1226L7.98613 48.6835C8.16423 48.4725 8.13752 48.157 7.92649 47.9789C7.71545 47.8008 7.39999 47.8275 7.2219 48.0386L4.64215 51.0955L1.58521 48.5158C1.37417 48.3377 1.05872 48.3644 0.880622 48.5754C0.702527 48.7865 0.729233 49.1019 0.94027 49.28L4.37933 52.1822ZM43.8079 1.22392C48.2933 4.17925 50.934 6.65291 52.1913 8.76197C52.8151 9.80838 53.0876 10.7472 53.0919 11.6009C53.0962 12.4515 52.8345 13.2567 52.3258 14.0398C51.293 15.6294 49.2644 17.0947 46.5075 18.5395C43.7649 19.9769 40.3782 21.3563 36.7046 22.809C29.3847 25.7034 20.937 28.8811 14.4991 33.3393C8.04623 37.8079 3.50899 43.6376 4.20358 51.8423L5.20001 51.7579C4.54822 44.0587 8.76237 38.5283 15.0684 34.1614C21.3895 29.7841 29.7083 26.6507 37.0723 23.7389C40.7405 22.2884 44.1751 20.8909 46.9717 19.4252C49.7542 17.967 51.9829 16.403 53.1643 14.5846C53.7626 13.6636 54.0973 12.6702 54.0919 11.5959C54.0865 10.5247 53.7433 9.41239 53.0503 8.24992C51.674 5.94121 48.8766 3.36598 44.3581 0.388876L43.8079 1.22392Z" fill="#7D298A"/>
</svg>
