<svg width="25" height="24" viewBox="0 0 25 24" fill="none" xmlns="http://www.w3.org/2000/svg">
<g clip-path="url(#clip0_5212_403)">
<path d="M12.8 2C18.323 2 22.8 6.477 22.8 12C22.8 17.523 18.323 22 12.8 22C11.098 22.0024 9.42376 21.5686 7.93705 20.74L7.63205 20.562L4.60005 21.454C4.43505 21.5026 4.26037 21.5083 4.09256 21.4705C3.92476 21.4327 3.76939 21.3526 3.64119 21.238C3.51298 21.1233 3.41619 20.9778 3.35999 20.8152C3.30379 20.6526 3.29004 20.4784 3.32005 20.309L3.34605 20.2L4.23805 17.168C3.2951 15.6093 2.79773 13.8218 2.80005 12C2.80005 6.477 7.27705 2 12.8 2ZM12.8 4C11.3677 3.99974 9.96151 4.38406 8.72838 5.11281C7.49525 5.84157 6.4804 6.88804 5.78981 8.14294C5.09922 9.39784 4.75821 10.8151 4.80241 12.2468C4.8466 13.6785 5.27437 15.0721 6.04105 16.282C6.23905 16.594 6.32405 16.978 6.25705 17.359L6.21805 17.522L5.77705 19.023L7.27805 18.582C7.71105 18.454 8.16105 18.532 8.51805 18.759C9.56638 19.4228 10.7547 19.8336 11.9892 19.959C13.2236 20.0844 14.4704 19.921 15.6308 19.4816C16.7912 19.0422 17.8334 18.3389 18.6752 17.4273C19.517 16.5157 20.1352 15.4208 20.4809 14.2291C20.8267 13.0374 20.8905 11.7817 20.6673 10.5611C20.4441 9.34053 19.9401 8.1886 19.195 7.19638C18.45 6.20415 17.4844 5.39883 16.3745 4.84408C15.2646 4.28933 14.0409 4.00036 12.8 4ZM9.90205 7.184C10.0129 7.13654 10.1341 7.11851 10.2539 7.13165C10.3737 7.14479 10.4881 7.18866 10.586 7.259C11.09 7.627 11.49 8.121 11.834 8.603L12.161 9.077L12.314 9.302C12.4027 9.43096 12.4462 9.58557 12.4379 9.74182C12.4295 9.89806 12.3698 10.0472 12.268 10.166L12.193 10.242L11.269 10.928C11.2251 10.9606 11.1942 11.0078 11.1819 11.0611C11.1696 11.1145 11.1768 11.1705 11.202 11.219C11.412 11.599 11.783 12.166 12.209 12.592C12.636 13.018 13.229 13.414 13.635 13.647C13.723 13.697 13.829 13.681 13.901 13.616L13.939 13.571L14.54 12.656C14.6502 12.5088 14.8132 12.4101 14.9947 12.3806C15.1761 12.3512 15.362 12.3932 15.513 12.498L16.056 12.877C16.596 13.262 17.115 13.676 17.526 14.201C17.6021 14.2997 17.6504 14.4168 17.6661 14.5404C17.6817 14.664 17.6641 14.7895 17.615 14.904C17.219 15.828 16.216 16.615 15.174 16.577L15.015 16.567L14.824 16.549L14.716 16.535L14.478 16.495C13.554 16.321 12.073 15.797 10.538 14.263C9.00405 12.728 8.48005 11.247 8.30605 10.323L8.26605 10.085L8.24105 9.877L8.22805 9.702L8.22405 9.627C8.18605 8.583 8.97705 7.58 9.90205 7.184Z" fill="#358BB9"/>
</g>
<defs>
<clipPath id="clip0_5212_403">
<rect width="24" height="24" fill="white" transform="translate(0.800049)"/>
</clipPath>
</defs>
</svg>
